# xmcd
#
# Track frame offsets: 
#        150
#        19872
#        35588
#        54007
#        77643
#        101607
#
# Disc length: 1633 seconds
#
# Revision: 0
# Processed by: cddbd v1.5.1PL0 Copyright (c) Steve Scherf et al.
# Submitted via: ExactAudioCopy v0.95a5
#
DISCID=3c065f06
DTITLE=Xavier and the Hum - Xavier and the Hum
DYEAR=2000
DGENRE=
TTITLE0=Lives in the Book
TTITLE1=Small Destinotion
TTITLE2=Green Spandex
TTITLE3=Music Inseperable
TTITLE4=Rhyme and Space
TTITLE5=Nevotonesh
EXTD=
EXTT0=
EXTT1=
EXTT2=
EXTT3=
EXTT4=
EXTT5=
PLAYORDER=
